<svg width="32" height="32" viewBox="0 0 32 32" fill="none" xmlns="http://www.w3.org/2000/svg">
<path d="M20.9556 26.5L22.4671 29.9881C22.7465 30.631 23.5157 30.9351 24.1867 30.668C24.859 30.4036 25.1777 29.6674 24.8992 29.0241L23.388 25.5371L20.9556 26.5Z" fill="#333333"/>
<path d="M21.9641 28.8252L24.3961 27.8623L21.9641 28.8252Z" fill="#333333"/>
<path d="M19.6379 12.0672C19.6379 13.9208 18.0668 15.4231 16.1297 15.4231C14.1906 15.4231 12.6191 13.9208 12.6191 12.0672C12.6191 10.2139 14.1906 8.7124 16.1297 8.7124C18.0664 8.7124 19.6379 10.2139 19.6379 12.0672Z" fill="#333333"/>
<path d="M17.8827 12.0671C17.8827 12.9944 17.0977 13.7458 16.1292 13.7458C15.1595 13.7458 14.3726 12.9944 14.3726 12.0671C14.3726 11.1405 15.1595 10.3892 16.1292 10.3892C17.0977 10.3887 17.8827 11.1405 17.8827 12.0671Z" fill="#333333"/>
<path d="M13.6678 14.4592L8.86679 25.5377L7.66333 30.5093L8.47389 30.8303L11.2996 26.5006L11.9718 24.9511C11.4473 23.7397 12.0483 22.3507 13.3151 21.8499L16.099 15.4221C15.1521 15.4146 14.2955 15.0489 13.6678 14.4592Z" fill="#333333"/>
<path d="M18.5889 14.4583C17.9608 15.0487 17.1034 15.4144 16.1565 15.4215L20.2861 24.949L22.7173 23.9866L18.5889 14.4583Z" fill="#333333"/>
<path d="M17.4447 7.03422V3.25865C17.4442 2.56284 16.8531 2 16.1286 2C15.4015 2 14.8125 2.56208 14.812 3.25865L14.8125 7.03422H17.4447Z" fill="#333333"/>
<path d="M16.1295 8.71212C16.3538 8.71212 16.5736 8.73366 16.7864 8.77221V7.03418H15.4707V8.77221C15.6843 8.73328 15.903 8.71212 16.1295 8.71212Z" fill="#333333"/>
</svg>
